<svg width="192" height="48" viewBox="0 0 192 48" fill="none" xmlns="http://www.w3.org/2000/svg">
<mask id="mask0_166_122" style="mask-type:alpha" maskUnits="userSpaceOnUse" x="0" y="0" width="48" height="48">
<rect width="48" height="48" fill="#D9D9D9"/>
</mask>
<g mask="url(#mask0_166_122)">
<path d="M22 42V26.05C19.8667 26.05 17.8167 25.6413 15.85 24.824C13.8833 24.008 12.15 22.85 10.65 21.35C9.15 19.85 8 18.1167 7.2 16.15C6.4 14.1833 6 12.1333 6 10V6H10C12.1 6 14.1333 6.408 16.1 7.224C18.0667 8.04133 19.8 9.2 21.3 10.7C22.3333 11.7333 23.192 12.8667 23.876 14.1C24.5587 15.3333 25.0833 16.65 25.45 18.05C25.6167 17.8167 25.8 17.592 26 17.376C26.2 17.1587 26.4167 16.9333 26.65 16.7C28.15 15.2 29.8833 14.0413 31.85 13.224C33.8167 12.408 35.8667 12 38 12H42V16C42 18.1333 41.592 20.1833 40.776 22.15C39.9587 24.1167 38.8 25.85 37.3 27.35C35.8 28.85 34.0747 30 32.124 30.8C30.1747 31.6 28.1333 32 26 32V42H22Z" fill="#1C1B1F"/>
</g>
<path d="M57.782 16H64.582C65.6087 16 66.4954 16.0933 67.242 16.28C68.002 16.4533 68.6287 16.7067 69.122 17.04C69.6154 17.36 69.982 17.7467 70.222 18.2C70.462 18.6533 70.582 19.1533 70.582 19.7C70.582 20.4067 70.382 21.02 69.982 21.54C69.582 22.06 68.982 22.4467 68.182 22.7C69.182 22.9 69.962 23.2933 70.522 23.88C71.0954 24.4533 71.382 25.1933 71.382 26.1C71.382 27.3 70.882 28.2533 69.882 28.96C68.8954 29.6533 67.3287 30 65.182 30H57.782V16ZM60.682 23.6V28.5H65.182C66.182 28.5 66.9487 28.3 67.482 27.9C68.0154 27.5 68.282 26.9 68.282 26.1C68.282 25.2467 68.0154 24.62 67.482 24.22C66.9487 23.8067 66.182 23.6 65.182 23.6H60.682ZM64.582 22.1C66.5154 22.1 67.482 21.3 67.482 19.7C67.482 18.9933 67.2354 18.4533 66.742 18.08C66.262 17.6933 65.542 17.5 64.582 17.5H60.682V22.1H64.582ZM81.7781 21H79.3781C78.4715 21 77.7781 21.2467 77.2981 21.74C76.8181 22.22 76.5781 22.94 76.5781 23.9V30H73.7781V23.9C73.7781 22.54 74.2048 21.4867 75.0581 20.74C75.9248 19.98 77.1648 19.6 78.7781 19.6H81.7781V21ZM85.1648 26.7C85.1648 27.9667 85.9315 28.6 87.4648 28.6H90.2648V24.8H87.4648C85.9315 24.8 85.1648 25.4333 85.1648 26.7ZM90.2648 23.4C90.2648 22.44 90.0115 21.7333 89.5048 21.28C89.0115 20.8267 88.3648 20.6 87.5648 20.6C86.9648 20.6 86.3782 20.6933 85.8048 20.88C85.2315 21.0533 84.7182 21.2933 84.2648 21.6L83.5648 20.4C83.8582 20.2 84.1782 20.0267 84.5248 19.88C84.8848 19.7333 85.2515 19.6133 85.6248 19.52C85.9982 19.4133 86.3648 19.3333 86.7248 19.28C87.0982 19.2267 87.4448 19.2 87.7648 19.2C88.6182 19.2 89.3715 19.3 90.0248 19.5C90.6782 19.7 91.2315 19.9867 91.6848 20.36C92.1382 20.7333 92.4782 21.18 92.7048 21.7C92.9448 22.2067 93.0648 22.7733 93.0648 23.4V30H87.4648C85.6515 30 84.3115 29.7267 83.4448 29.18C82.5915 28.6333 82.1648 27.8067 82.1648 26.7C82.1648 25.5933 82.5915 24.7667 83.4448 24.22C84.3115 23.6733 85.6515 23.4 87.4648 23.4H90.2648ZM106.855 30H104.055V23.7C104.055 22.74 103.815 22.0533 103.335 21.64C102.855 21.2133 102.162 21 101.255 21H98.6555V30H95.8555V19.6H101.255C103.162 19.6 104.569 19.9467 105.475 20.64C106.395 21.32 106.855 22.34 106.855 23.7V30ZM117.747 28.6V21H115.247C114.794 21 114.374 21.0733 113.987 21.22C113.614 21.3533 113.287 21.5733 113.007 21.88C112.74 22.1867 112.527 22.58 112.367 23.06C112.22 23.54 112.147 24.12 112.147 24.8C112.147 25.48 112.22 26.06 112.367 26.54C112.527 27.02 112.74 27.4133 113.007 27.72C113.287 28.0267 113.614 28.2533 113.987 28.4C114.374 28.5333 114.794 28.6 115.247 28.6H117.747ZM115.247 30C114.327 30 113.487 29.88 112.727 29.64C111.98 29.4 111.34 29.0533 110.807 28.6C110.274 28.1467 109.86 27.6 109.567 26.96C109.287 26.32 109.147 25.6 109.147 24.8C109.147 24 109.287 23.28 109.567 22.64C109.86 22 110.274 21.4533 110.807 21C111.34 20.5467 111.98 20.2 112.727 19.96C113.487 19.72 114.327 19.6 115.247 19.6H117.747V16H120.547V30H115.247ZM144.93 16V30H141.13L133.63 18.6H133.43V30H130.53V16H134.33L141.83 27.4H142.03V16H144.93ZM150.138 26.7C150.138 27.9667 150.904 28.6 152.438 28.6H155.238V24.8H152.438C150.904 24.8 150.138 25.4333 150.138 26.7ZM155.238 23.4C155.238 22.44 154.984 21.7333 154.478 21.28C153.984 20.8267 153.338 20.6 152.538 20.6C151.938 20.6 151.351 20.6933 150.778 20.88C150.204 21.0533 149.691 21.2933 149.238 21.6L148.538 20.4C148.831 20.2 149.151 20.0267 149.498 19.88C149.858 19.7333 150.224 19.6133 150.598 19.52C150.971 19.4133 151.338 19.3333 151.698 19.28C152.071 19.2267 152.418 19.2 152.738 19.2C153.591 19.2 154.344 19.3 154.998 19.5C155.651 19.7 156.204 19.9867 156.658 20.36C157.111 20.7333 157.451 21.18 157.678 21.7C157.918 22.2067 158.038 22.7733 158.038 23.4V30H152.438C150.624 30 149.284 29.7267 148.418 29.18C147.564 28.6333 147.138 27.8067 147.138 26.7C147.138 25.5933 147.564 24.7667 148.418 24.22C149.284 23.6733 150.624 23.4 152.438 23.4H155.238ZM160.828 19.6H171.228C173.135 19.6 174.541 19.9467 175.448 20.64C176.368 21.32 176.828 22.34 176.828 23.7V30H174.028V23.7C174.028 22.74 173.788 22.0533 173.308 21.64C172.828 21.2133 172.135 21 171.228 21H170.228V30H167.428V21H163.628V30H160.828V19.6ZM185.62 29C186.273 29 186.88 28.8867 187.44 28.66C188.013 28.4333 188.573 28.1133 189.12 27.7L189.92 28.9C189.666 29.1267 189.366 29.3333 189.02 29.52C188.686 29.7067 188.32 29.8667 187.92 30C187.533 30.12 187.126 30.2133 186.7 30.28C186.273 30.36 185.846 30.4 185.42 30.4C184.473 30.4 183.606 30.2733 182.82 30.02C182.046 29.78 181.386 29.4267 180.84 28.96C180.293 28.48 179.866 27.8933 179.56 27.2C179.266 26.5067 179.12 25.7067 179.12 24.8C179.12 23.9067 179.26 23.1133 179.54 22.42C179.833 21.7133 180.233 21.1267 180.74 20.66C181.26 20.18 181.873 19.82 182.58 19.58C183.286 19.3267 184.066 19.2 184.92 19.2C185.72 19.2 186.473 19.32 187.18 19.56C187.886 19.8 188.5 20.1533 189.02 20.62C189.54 21.0733 189.953 21.6267 190.26 22.28C190.566 22.9333 190.72 23.6733 190.72 24.5V25.9H182.18C182.34 27.0067 182.72 27.8 183.32 28.28C183.933 28.76 184.7 29 185.62 29ZM184.92 20.5C184.533 20.5 184.173 20.5733 183.84 20.72C183.506 20.8667 183.213 21.1 182.96 21.42C182.72 21.74 182.52 22.1533 182.36 22.66C182.213 23.1667 182.133 23.78 182.12 24.5H187.72C187.72 23.8067 187.64 23.2067 187.48 22.7C187.32 22.1933 187.106 21.78 186.84 21.46C186.586 21.1267 186.286 20.8867 185.94 20.74C185.606 20.58 185.266 20.5 184.92 20.5Z" fill="#282828"/>
</svg>
