<svg width="42" height="54" viewBox="0 0 42 54" fill="none" xmlns="http://www.w3.org/2000/svg">
<path d="M17.0874 31.4317C16.5874 31.4317 16.1108 31.3517 15.6574 31.1917C15.2041 31.025 14.8441 30.805 14.5774 30.5317L14.9274 29.9617C15.1474 30.195 15.4474 30.3883 15.8274 30.5417C16.2141 30.695 16.6308 30.7717 17.0774 30.7717C17.6708 30.7717 18.1208 30.6417 18.4274 30.3817C18.7408 30.115 18.8974 29.7683 18.8974 29.3417C18.8974 29.0417 18.8241 28.785 18.6774 28.5717C18.5374 28.3517 18.2974 28.1817 17.9574 28.0617C17.6174 27.9417 17.1508 27.8817 16.5574 27.8817H15.0674L15.4274 24.3717H19.2574V25.0117H15.7174L16.0874 24.6617L15.7774 27.6017L15.4074 27.2417H16.7174C17.4241 27.2417 17.9908 27.3283 18.4174 27.5017C18.8441 27.675 19.1508 27.9183 19.3374 28.2317C19.5308 28.5383 19.6274 28.8983 19.6274 29.3117C19.6274 29.705 19.5341 30.065 19.3474 30.3917C19.1608 30.7117 18.8808 30.965 18.5074 31.1517C18.1341 31.3383 17.6608 31.4317 17.0874 31.4317ZM23.3315 31.4317C22.7915 31.4317 22.3115 31.2917 21.8915 31.0117C21.4715 30.725 21.1415 30.3183 20.9015 29.7917C20.6615 29.2583 20.5415 28.6183 20.5415 27.8717C20.5415 27.125 20.6615 26.4883 20.9015 25.9617C21.1415 25.4283 21.4715 25.0217 21.8915 24.7417C22.3115 24.455 22.7915 24.3117 23.3315 24.3117C23.8715 24.3117 24.3515 24.455 24.7715 24.7417C25.1915 25.0217 25.5215 25.4283 25.7615 25.9617C26.0082 26.4883 26.1315 27.125 26.1315 27.8717C26.1315 28.6183 26.0082 29.2583 25.7615 29.7917C25.5215 30.3183 25.1915 30.725 24.7715 31.0117C24.3515 31.2917 23.8715 31.4317 23.3315 31.4317ZM23.3315 30.7717C23.7448 30.7717 24.1048 30.6617 24.4115 30.4417C24.7182 30.215 24.9582 29.8883 25.1315 29.4617C25.3048 29.0283 25.3915 28.4983 25.3915 27.8717C25.3915 27.245 25.3048 26.7183 25.1315 26.2917C24.9582 25.8583 24.7182 25.5317 24.4115 25.3117C24.1048 25.085 23.7448 24.9717 23.3315 24.9717C22.9315 24.9717 22.5748 25.085 22.2615 25.3117C21.9482 25.5317 21.7048 25.8583 21.5315 26.2917C21.3582 26.7183 21.2715 27.245 21.2715 27.8717C21.2715 28.4983 21.3582 29.0283 21.5315 29.4617C21.7048 29.8883 21.9482 30.215 22.2615 30.4417C22.5748 30.6617 22.9315 30.7717 23.3315 30.7717Z" fill="#282828"/>
<path d="M9 5.3714H33" stroke="#282828" stroke-linecap="round"/>
<path d="M8.85926 2.25851C8.91831 1.4761 9.57037 0.871399 10.355 0.871399H31.6456C32.4302 0.871399 33.0823 1.4761 33.1413 2.25851L36.8395 51.2587C36.9052 52.1291 36.2166 52.8716 35.3437 52.8716H6.65687C5.78397 52.8716 5.09544 52.1291 5.16113 51.2587L8.85926 2.25851Z" stroke="#282828"/>
<path d="M7.50003 15.8713L2.3609 30.2608C0.832663 34.5399 0.807052 39.2118 2.28828 43.5074L5.00002 51.3714" stroke="#282828" stroke-linecap="round"/>
<path d="M34.5 15.8713L39.678 30.3697C41.1824 34.5822 41.2313 39.1774 39.8168 43.421L37 51.8714" stroke="#282828" stroke-linecap="round"/>
</svg>
