<svg width="38" height="56" viewBox="0 0 38 56" fill="none" xmlns="http://www.w3.org/2000/svg">
<path d="M19.0001 1.68086C12.7603 1.68086 6.43934 3.16082 6.43934 5.98681C6.43934 8.8128 12.7603 10.2928 19.0001 10.2928C25.2398 10.2928 31.5608 8.8128 31.5608 5.98681C31.5608 3.16082 25.2398 1.68086 19.0001 1.68086ZM19.0001 8.95343C12.0982 8.95343 7.68854 7.19891 7.68854 5.98681C7.68854 4.77472 12.092 3.02019 19.0001 3.02019C25.9081 3.02019 30.3116 4.77472 30.3116 5.98681C30.3116 7.19891 25.9019 8.95343 19.0001 8.95343ZM19.0001 0C10.2307 0 0.911621 2.09605 0.911621 5.98681V49.7562C0.911621 53.6469 10.2307 55.743 19.0001 55.743C27.7695 55.743 37.0885 53.6469 37.0885 49.7562V5.98681C37.0885 2.09605 27.7695 0 19.0001 0ZM35.8393 49.7562C35.8393 51.6982 29.4309 54.4036 19.0001 54.4036C8.56923 54.4036 2.16082 51.6982 2.16082 49.7562V8.29046C4.98402 10.7013 12.1607 11.9736 19.0001 11.9736C25.8394 11.9736 33.0161 10.6946 35.8393 8.29046V49.7562ZM19.0001 10.6343C8.56923 10.6343 2.16082 7.92884 2.16082 5.98681C2.16082 4.04478 8.56923 1.33933 19.0001 1.33933C29.4309 1.33933 35.8393 4.04478 35.8393 5.98681C35.8393 7.92884 29.4309 10.6343 19.0001 10.6343Z" fill="#282828"/>
<path d="M12.7761 33V26.3L13.0961 26.64H11.1261V26H13.4961V33H12.7761ZM16.3994 33L19.4194 26.32L19.6394 26.64H15.3094L15.6794 26.29V27.95H14.9694V26H20.1094V26.51L17.1794 33H16.3994ZM23.6528 33.06C23.1128 33.06 22.6328 32.92 22.2128 32.64C21.7928 32.3533 21.4628 31.9467 21.2228 31.42C20.9828 30.8867 20.8628 30.2467 20.8628 29.5C20.8628 28.7533 20.9828 28.1167 21.2228 27.59C21.4628 27.0567 21.7928 26.65 22.2128 26.37C22.6328 26.0833 23.1128 25.94 23.6528 25.94C24.1928 25.94 24.6728 26.0833 25.0928 26.37C25.5128 26.65 25.8428 27.0567 26.0828 27.59C26.3294 28.1167 26.4528 28.7533 26.4528 29.5C26.4528 30.2467 26.3294 30.8867 26.0828 31.42C25.8428 31.9467 25.5128 32.3533 25.0928 32.64C24.6728 32.92 24.1928 33.06 23.6528 33.06ZM23.6528 32.4C24.0661 32.4 24.4261 32.29 24.7328 32.07C25.0394 31.8433 25.2794 31.5167 25.4528 31.09C25.6261 30.6567 25.7128 30.1267 25.7128 29.5C25.7128 28.8733 25.6261 28.3467 25.4528 27.92C25.2794 27.4867 25.0394 27.16 24.7328 26.94C24.4261 26.7133 24.0661 26.6 23.6528 26.6C23.2528 26.6 22.8961 26.7133 22.5828 26.94C22.2694 27.16 22.0261 27.4867 21.8528 27.92C21.6794 28.3467 21.5928 28.8733 21.5928 29.5C21.5928 30.1267 21.6794 30.6567 21.8528 31.09C22.0261 31.5167 22.2694 31.8433 22.5828 32.07C22.8961 32.29 23.2528 32.4 23.6528 32.4Z" fill="#282828"/>
</svg>
