<svg width="42" height="54" viewBox="0 0 42 54" fill="none" xmlns="http://www.w3.org/2000/svg">
<path d="M12.4056 31.3714V30.8614L15.3156 28.0114C15.5823 27.7514 15.7823 27.5247 15.9156 27.3314C16.049 27.1314 16.139 26.9447 16.1856 26.7714C16.2323 26.5981 16.2556 26.4347 16.2556 26.2814C16.2556 25.8747 16.1156 25.5547 15.8356 25.3214C15.5623 25.0881 15.1556 24.9714 14.6156 24.9714C14.2023 24.9714 13.8356 25.0347 13.5156 25.1614C13.2023 25.2881 12.9323 25.4847 12.7056 25.7514L12.1956 25.3114C12.469 24.9914 12.819 24.7447 13.2456 24.5714C13.6723 24.3981 14.149 24.3114 14.6756 24.3114C15.149 24.3114 15.559 24.3881 15.9056 24.5414C16.2523 24.6881 16.519 24.9047 16.7056 25.1914C16.899 25.4781 16.9956 25.8147 16.9956 26.2014C16.9956 26.4281 16.9623 26.6514 16.8956 26.8714C16.8356 27.0914 16.7223 27.3247 16.5556 27.5714C16.3956 27.8114 16.159 28.0847 15.8456 28.3914L13.1756 31.0114L12.9756 30.7314H17.3156V31.3714H12.4056ZM20.4292 31.4314C19.9292 31.4314 19.4526 31.3514 18.9992 31.1914C18.5459 31.0247 18.1859 30.8047 17.9192 30.5314L18.2692 29.9614C18.4892 30.1947 18.7892 30.3881 19.1692 30.5414C19.5559 30.6947 19.9726 30.7714 20.4192 30.7714C21.0126 30.7714 21.4626 30.6414 21.7692 30.3814C22.0826 30.1147 22.2392 29.7681 22.2392 29.3414C22.2392 29.0414 22.1659 28.7847 22.0192 28.5714C21.8792 28.3514 21.6392 28.1814 21.2992 28.0614C20.9592 27.9414 20.4926 27.8814 19.8992 27.8814H18.4092L18.7692 24.3714H22.5992V25.0114H19.0592L19.4292 24.6614L19.1192 27.6014L18.7492 27.2414H20.0592C20.7659 27.2414 21.3326 27.3281 21.7592 27.5014C22.1859 27.6747 22.4926 27.9181 22.6792 28.2314C22.8726 28.5381 22.9692 28.8981 22.9692 29.3114C22.9692 29.7047 22.8759 30.0647 22.6892 30.3914C22.5026 30.7114 22.2226 30.9647 21.8492 31.1514C21.4759 31.3381 21.0026 31.4314 20.4292 31.4314ZM26.6733 31.4314C26.1333 31.4314 25.6533 31.2914 25.2333 31.0114C24.8133 30.7247 24.4833 30.3181 24.2433 29.7914C24.0033 29.2581 23.8833 28.6181 23.8833 27.8714C23.8833 27.1247 24.0033 26.4881 24.2433 25.9614C24.4833 25.4281 24.8133 25.0214 25.2333 24.7414C25.6533 24.4547 26.1333 24.3114 26.6733 24.3114C27.2133 24.3114 27.6933 24.4547 28.1133 24.7414C28.5333 25.0214 28.8633 25.4281 29.1033 25.9614C29.3499 26.4881 29.4733 27.1247 29.4733 27.8714C29.4733 28.6181 29.3499 29.2581 29.1033 29.7914C28.8633 30.3181 28.5333 30.7247 28.1133 31.0114C27.6933 31.2914 27.2133 31.4314 26.6733 31.4314ZM26.6733 30.7714C27.0866 30.7714 27.4466 30.6614 27.7533 30.4414C28.0599 30.2147 28.2999 29.8881 28.4733 29.4614C28.6466 29.0281 28.7333 28.4981 28.7333 27.8714C28.7333 27.2447 28.6466 26.7181 28.4733 26.2914C28.2999 25.8581 28.0599 25.5314 27.7533 25.3114C27.4466 25.0847 27.0866 24.9714 26.6733 24.9714C26.2733 24.9714 25.9166 25.0847 25.6033 25.3114C25.2899 25.5314 25.0466 25.8581 24.8733 26.2914C24.6999 26.7181 24.6133 27.2447 24.6133 27.8714C24.6133 28.4981 24.6999 29.0281 24.8733 29.4614C25.0466 29.8881 25.2899 30.2147 25.6033 30.4414C25.9166 30.6614 26.2733 30.7714 26.6733 30.7714Z" fill="#282828"/>
<path d="M9 5.3714H33" stroke="#282828" stroke-linecap="round"/>
<path d="M8.8595 2.25851C8.91855 1.4761 9.57061 0.871399 10.3552 0.871399H31.6458C32.4305 0.871399 33.0825 1.4761 33.1416 2.25851L36.8397 51.2587C36.9054 52.1291 36.2169 52.8716 35.344 52.8716H6.65712C5.78421 52.8716 5.09568 52.1291 5.16137 51.2587L8.8595 2.25851Z" stroke="#282828"/>
<path d="M7.50003 15.8713L2.3609 30.2608C0.832663 34.5399 0.807052 39.2118 2.28828 43.5074L5.00002 51.3714" stroke="#282828" stroke-linecap="round"/>
<path d="M34.5 15.8713L39.678 30.3697C41.1824 34.5822 41.2313 39.1774 39.8168 43.421L37 51.8714" stroke="#282828" stroke-linecap="round"/>
</svg>
