<svg width="42" height="54" viewBox="0 0 42 54" fill="none" xmlns="http://www.w3.org/2000/svg">
<path d="M13.3015 31.3714V24.6714L13.6215 25.0114H11.6515V24.3714H14.0215V31.3714H13.3015ZM19.342 30.0114L19.362 29.1014L22.632 26.1214H23.502L21.192 28.3314L20.792 28.6714L19.342 30.0114ZM18.782 31.3714V23.9514H19.492V31.3714H18.782ZM22.852 31.3714L20.662 28.6414L21.122 28.0914L23.722 31.3714H22.852ZM26.8228 33.3614C26.3428 33.3614 25.8828 33.2914 25.4428 33.1514C25.0028 33.0114 24.6461 32.8114 24.3728 32.5514L24.7328 32.0114C24.9794 32.2314 25.2828 32.4047 25.6428 32.5314C26.0094 32.6647 26.3961 32.7314 26.8028 32.7314C27.4694 32.7314 27.9594 32.5747 28.2728 32.2614C28.5861 31.9547 28.7428 31.4747 28.7428 30.8214V29.5114L28.8428 28.6114L28.7728 27.7114V26.1214H29.4528V30.7314C29.4528 31.6381 29.2294 32.3014 28.7828 32.7214C28.3428 33.1481 27.6894 33.3614 26.8228 33.3614ZM26.6928 31.1714C26.1928 31.1714 25.7428 31.0647 25.3428 30.8514C24.9428 30.6314 24.6261 30.3281 24.3928 29.9414C24.1661 29.5547 24.0528 29.1114 24.0528 28.6114C24.0528 28.1114 24.1661 27.6714 24.3928 27.2914C24.6261 26.9047 24.9428 26.6047 25.3428 26.3914C25.7428 26.1781 26.1928 26.0714 26.6928 26.0714C27.1594 26.0714 27.5794 26.1681 27.9528 26.3614C28.3261 26.5547 28.6228 26.8414 28.8428 27.2214C29.0628 27.6014 29.1728 28.0647 29.1728 28.6114C29.1728 29.1581 29.0628 29.6214 28.8428 30.0014C28.6228 30.3814 28.3261 30.6714 27.9528 30.8714C27.5794 31.0714 27.1594 31.1714 26.6928 31.1714ZM26.7628 30.5414C27.1494 30.5414 27.4928 30.4614 27.7928 30.3014C28.0928 30.1347 28.3294 29.9081 28.5028 29.6214C28.6761 29.3281 28.7628 28.9914 28.7628 28.6114C28.7628 28.2314 28.6761 27.8981 28.5028 27.6114C28.3294 27.3247 28.0928 27.1014 27.7928 26.9414C27.4928 26.7747 27.1494 26.6914 26.7628 26.6914C26.3828 26.6914 26.0394 26.7747 25.7328 26.9414C25.4328 27.1014 25.1961 27.3247 25.0228 27.6114C24.8561 27.8981 24.7728 28.2314 24.7728 28.6114C24.7728 28.9914 24.8561 29.3281 25.0228 29.6214C25.1961 29.9081 25.4328 30.1347 25.7328 30.3014C26.0394 30.4614 26.3828 30.5414 26.7628 30.5414Z" fill="#282828"/>
<path d="M9 5.3714H33" stroke="#282828" stroke-linecap="round"/>
<path d="M8.8595 2.25851C8.91855 1.4761 9.57061 0.871399 10.3552 0.871399H31.6458C32.4305 0.871399 33.0825 1.4761 33.1416 2.25851L36.8397 51.2587C36.9054 52.1291 36.2169 52.8716 35.344 52.8716H6.65712C5.78421 52.8716 5.09568 52.1291 5.16137 51.2587L8.8595 2.25851Z" stroke="#282828"/>
<path d="M7.50003 15.8713L2.3609 30.2608C0.832663 34.5399 0.807052 39.2118 2.28828 43.5074L5.00002 51.3714" stroke="#282828" stroke-linecap="round"/>
<path d="M34.5 15.8713L39.678 30.3697C41.1824 34.5822 41.2313 39.1774 39.8168 43.421L37 51.8714" stroke="#282828" stroke-linecap="round"/>
</svg>
