<svg width="44" height="54" viewBox="0 0 44 54" fill="none" xmlns="http://www.w3.org/2000/svg">
<path d="M9.9216 21.7751L13.3931 17.2188L17.404 12.5745C17.689 12.2446 18.1033 12.055 18.5393 12.055H26.1331H33.7269C34.1628 12.055 34.5772 12.2446 34.8622 12.5745L38.8731 17.2188L42.3446 21.7751C42.5436 22.0364 42.6514 22.3558 42.6514 22.6842V32.4632V51.3715C42.6514 52.1999 41.9799 52.8715 41.1514 52.8715H11.1147C10.2863 52.8715 9.61475 52.1999 9.61475 51.3715V32.4632V22.6842C9.61475 22.3558 9.72255 22.0364 9.9216 21.7751Z" stroke="#282828"/>
<path d="M26.133 16.9036C26.133 16.1501 26.133 12.1121 26.133 8.16727C26.133 4.78526 23.7006 1.89341 20.3686 1.31394L19.429 1.15053C16.8035 0.693917 14.2083 2.10112 13.1585 4.55057V4.55057C11.3886 8.68048 5.77813 9.27574 3.18098 5.60916L0.848633 2.31644" stroke="#282828" stroke-linecap="round"/>
</svg>
