<svg width="42" height="54" viewBox="0 0 42 54" fill="none" xmlns="http://www.w3.org/2000/svg">
<path d="M14.3123 31.3714V24.6714L14.6323 25.0114H12.6623V24.3714H15.0323V31.3714H14.3123ZM19.4955 31.4314C18.9555 31.4314 18.4755 31.2914 18.0555 31.0114C17.6355 30.7247 17.3055 30.3181 17.0655 29.7914C16.8255 29.2581 16.7055 28.6181 16.7055 27.8714C16.7055 27.1247 16.8255 26.4881 17.0655 25.9614C17.3055 25.4281 17.6355 25.0214 18.0555 24.7414C18.4755 24.4547 18.9555 24.3114 19.4955 24.3114C20.0355 24.3114 20.5155 24.4547 20.9355 24.7414C21.3555 25.0214 21.6855 25.4281 21.9255 25.9614C22.1722 26.4881 22.2955 27.1247 22.2955 27.8714C22.2955 28.6181 22.1722 29.2581 21.9255 29.7914C21.6855 30.3181 21.3555 30.7247 20.9355 31.0114C20.5155 31.2914 20.0355 31.4314 19.4955 31.4314ZM19.4955 30.7714C19.9089 30.7714 20.2689 30.6614 20.5755 30.4414C20.8822 30.2147 21.1222 29.8881 21.2955 29.4614C21.4689 29.0281 21.5555 28.4981 21.5555 27.8714C21.5555 27.2447 21.4689 26.7181 21.2955 26.2914C21.1222 25.8581 20.8822 25.5314 20.5755 25.3114C20.2689 25.0847 19.9089 24.9714 19.4955 24.9714C19.0955 24.9714 18.7389 25.0847 18.4255 25.3114C18.1122 25.5314 17.8689 25.8581 17.6955 26.2914C17.5222 26.7181 17.4355 27.2447 17.4355 27.8714C17.4355 28.4981 17.5222 29.0281 17.6955 29.4614C17.8689 29.8881 18.1122 30.2147 18.4255 30.4414C18.7389 30.6614 19.0955 30.7714 19.4955 30.7714ZM26.1166 31.4314C25.5766 31.4314 25.0966 31.2914 24.6766 31.0114C24.2566 30.7247 23.9266 30.3181 23.6866 29.7914C23.4466 29.2581 23.3266 28.6181 23.3266 27.8714C23.3266 27.1247 23.4466 26.4881 23.6866 25.9614C23.9266 25.4281 24.2566 25.0214 24.6766 24.7414C25.0966 24.4547 25.5766 24.3114 26.1166 24.3114C26.6566 24.3114 27.1366 24.4547 27.5566 24.7414C27.9766 25.0214 28.3066 25.4281 28.5466 25.9614C28.7933 26.4881 28.9166 27.1247 28.9166 27.8714C28.9166 28.6181 28.7933 29.2581 28.5466 29.7914C28.3066 30.3181 27.9766 30.7247 27.5566 31.0114C27.1366 31.2914 26.6566 31.4314 26.1166 31.4314ZM26.1166 30.7714C26.53 30.7714 26.89 30.6614 27.1966 30.4414C27.5033 30.2147 27.7433 29.8881 27.9166 29.4614C28.09 29.0281 28.1766 28.4981 28.1766 27.8714C28.1766 27.2447 28.09 26.7181 27.9166 26.2914C27.7433 25.8581 27.5033 25.5314 27.1966 25.3114C26.89 25.0847 26.53 24.9714 26.1166 24.9714C25.7166 24.9714 25.36 25.0847 25.0466 25.3114C24.7333 25.5314 24.49 25.8581 24.3166 26.2914C24.1433 26.7181 24.0566 27.2447 24.0566 27.8714C24.0566 28.4981 24.1433 29.0281 24.3166 29.4614C24.49 29.8881 24.7333 30.2147 25.0466 30.4414C25.36 30.6614 25.7166 30.7714 26.1166 30.7714Z" fill="#282828"/>
<path d="M9 5.3714H33" stroke="#282828" stroke-linecap="round"/>
<path d="M8.85926 2.25851C8.91831 1.4761 9.57037 0.871399 10.355 0.871399H31.6456C32.4302 0.871399 33.0823 1.4761 33.1413 2.25851L36.8395 51.2587C36.9052 52.1291 36.2166 52.8716 35.3437 52.8716H6.65687C5.78397 52.8716 5.09544 52.1291 5.16113 51.2587L8.85926 2.25851Z" stroke="#282828"/>
<path d="M7.50003 15.8713L2.3609 30.2608C0.832663 34.5399 0.807052 39.2118 2.28828 43.5074L5.00002 51.3714" stroke="#282828" stroke-linecap="round"/>
<path d="M34.5 15.8713L39.678 30.3697C41.1824 34.5822 41.2313 39.1774 39.8168 43.421L37 51.8714" stroke="#282828" stroke-linecap="round"/>
</svg>
